<?xml version="1.0" encoding="UTF-8" standalone="no"?>
<svg width="37px" height="30px" viewBox="0 0 37 30" version="1.1" xmlns="http://www.w3.org/2000/svg" xmlns:xlink="http://www.w3.org/1999/xlink" xmlns:sketch="http://www.bohemiancoding.com/sketch/ns">
    <!-- Generator: Sketch 3.2.2 (9983) - http://www.bohemiancoding.com/sketch -->
    <title>History Dark</title>
    <desc>Created with Sketch.</desc>
    <defs></defs>
    <g id="IVR-Concept-01---Menu-Icons" stroke="none" stroke-width="1" fill="none" fill-rule="evenodd" sketch:type="MSPage">
        <g id="History-Dark" sketch:type="MSArtboardGroup" fill="#122939">
            <path d="M28.7569758,30 L6.24302422,30 C2.80099739,30 0,27.2621805 0,23.8965419 L0,11.104474 C0,7.73883539 2.80203633,5 6.24302422,5 L18.4869983,5 C19.1249109,5 19.6412669,5.50489658 19.6412669,6.12865212 C19.6412669,6.75240766 19.1249109,7.25730424 18.4869983,7.25730424 L6.24302422,7.25730424 C4.07370577,7.25730424 2.30853716,8.98329879 2.30853716,11.104474 L2.30853716,23.895526 C2.30853716,26.0167012 4.07370577,27.7416799 6.24302422,27.7416799 L28.7569758,27.7416799 C30.9262942,27.7416799 32.6904239,26.0167012 32.6904239,23.895526 L32.6904239,13.2916819 C32.6904239,12.6679264 33.2078188,12.1630298 33.8457314,12.1630298 C34.4826051,12.1630298 35,12.6679264 35,13.2916819 L35,23.895526 C35,27.2621805 32.1990026,30 28.7569758,30" id="Fill-1" sketch:type="MSShapeGroup"></path>
            <path d="M17.5,23 C14.4672619,23 12,20.532161 12,17.500372 C12,14.467839 14.4672619,12 17.5,12 C20.531994,12 23,14.467095 23,17.500372 C23,20.532905 20.5327381,23 17.5,23 L17.5,23 Z" id="Fill-2" sketch:type="MSShapeGroup"></path>
            <path d="M29.1750577,16 C29.1169751,16 29.0578365,15.9968323 28.9976418,15.9873293 C28.357677,15.8901876 27.9162491,15.2925548 28.0134055,14.6505747 C28.6259131,10.5980751 31.6272,7.59935216 35.6581333,7.01227823 C36.297042,6.91936005 36.8947649,7.36388906 36.987697,8.00481329 C37.0806292,8.64573753 36.6370893,9.24125857 35.9950124,9.33523263 C33.0106222,9.76920275 30.7886983,11.9929037 30.3335418,15.0021855 C30.2458899,15.58398 29.7453234,16 29.1750577,16" id="Fill-3" sketch:type="MSShapeGroup"></path>
            <path d="M35.8650653,9.02806291 C35.8069895,9.02806291 35.7478578,9.02489496 35.6876702,9.01539113 C31.6350355,8.40186558 28.6362125,5.40182071 28.049119,1.3711374 C27.9561977,0.730156326 28.3996856,0.134582476 29.0416871,0.0406000778 C29.678409,-0.0533823205 30.2781736,0.391186103 30.3710949,1.03322316 C30.8061354,4.01637232 33.0309664,6.24027042 36.0392927,6.69539866 C36.6791824,6.79254901 37.1205585,7.39023482 37.0234135,8.0312159 C36.9368278,8.612006 36.43632,9.02806291 35.8650653,9.02806291" id="Fill-4" sketch:type="MSShapeGroup"></path>
            <path d="M27.6662268,15.0031505 C27.2110301,11.9935943 24.9889096,9.76863465 22.0053115,9.33462496 C21.3631778,9.24169831 20.9185425,8.64612298 21.0125391,8.00408432 C21.1054795,7.36415763 21.7064236,6.91853211 22.3422205,7.01251474 C26.3724542,7.5996422 29.3740067,10.5975826 29.9865684,14.6515076 C30.0837334,15.2924903 29.6433226,15.8912336 29.0022451,15.9873282 C28.9420451,15.996832 28.8839573,16 28.8248134,16 C28.2544973,16 27.7538865,15.5828861 27.6662268,15.0031505 Z" id="Fill-5" sketch:type="MSShapeGroup"></path>
            <path d="M22.1717544,9 C21.6015541,9 21.101045,8.58394202 21.0134031,8.00315042 C20.9162579,7.36216769 21.3576351,6.76448033 21.9985824,6.66732974 C25.0079726,6.21114433 27.2306976,3.98935247 27.6657392,1.00513963 C27.7586608,0.364156897 28.3584269,-0.0814686585 28.9951505,0.0125139822 C29.6360978,0.105440638 30.0806428,0.701016025 29.9877213,1.34305474 C29.4016822,5.37269246 26.4039072,8.37274507 22.34915,8.9862722 C22.2889622,8.99683205 22.2308862,9 22.1717544,9" id="Fill-6" sketch:type="MSShapeGroup"></path>
        </g>
    </g>
</svg>