<?xml version="1.0" encoding="UTF-8" standalone="no"?>
<svg width="200px" height="200px" viewBox="0 0 200 200" version="1.1" xmlns="http://www.w3.org/2000/svg" xmlns:xlink="http://www.w3.org/1999/xlink" xmlns:sketch="http://www.bohemiancoding.com/sketch/ns">
    <!-- Generator: Sketch 3.2.2 (9983) - http://www.bohemiancoding.com/sketch -->
    <title>Yellow</title>
    <desc>Created with Sketch.</desc>
    <defs></defs>
    <g id="Page-4" stroke="none" stroke-width="1" fill="none" fill-rule="evenodd" sketch:type="MSPage">
        <g id="Yellow" sketch:type="MSArtboardGroup" fill="#FFCC00">
            <path d="M92.1043386,165.377884 C89.6366138,165.377884 87.2277778,164.853492 84.9507407,163.857989 L72.5392063,158.364497 C54.1686772,150.232222 52.5646561,114.935344 68.8824868,78.0035979 C82.6905291,46.7616402 104.793492,24.9419048 122.648042,24.9419048 C125.525185,24.9419048 128.264921,25.4831217 130.766296,26.5964021 L143.180635,32.0870899 C147.51037,33.9995767 150.841799,37.4880423 152.543968,41.9019048 C154.262963,46.3213757 154.139577,51.1306349 152.235503,55.4771958 L148.59,63.7608995 C144.751005,72.4428042 133.949101,76.6575661 125.21672,72.8185714 L112.802381,67.3334921 C109.636402,65.9201587 100.124444,72.7007937 93.0689947,88.6793122 C89.9198413,95.7992593 88.0662434,103.261323 88.0101587,109.13619 C87.9512698,114.220265 89.2468254,117.077778 90.5592063,117.644233 L102.973545,123.118095 C111.913439,127.100106 115.96836,137.568307 112.022804,146.499788 L108.374497,154.766667 C105.491746,161.224815 99.1261376,165.377884 92.1043386,165.377884 L92.1043386,165.377884 Z M122.63963,33.2508466 C108.450212,33.2508466 88.5990476,53.9236508 76.4763492,81.3602646 C61.0726984,116.205661 63.7395238,145.386508 75.8874603,150.762222 L88.2989947,156.255714 C92.9624339,158.316825 98.685873,156.065026 100.721746,151.443651 L104.370053,143.16836 C106.462011,138.423598 104.311164,132.857196 99.5495767,130.737196 L87.146455,125.263333 C82.2110053,123.087249 79.5413757,117.327354 79.642328,109.052063 C79.726455,101.982593 81.7707407,93.5726984 85.4078307,85.3394709 C91.2322222,72.162381 101.677989,58.8591005 111.871376,58.8591005 C113.377249,58.8591005 114.804603,59.1591534 116.116984,59.7396296 L128.52291,65.224709 C133.191958,67.2998413 138.909788,65.0312169 140.945661,60.4126455 L144.599577,52.1205291 C145.623122,49.818254 145.690423,47.2607937 144.776243,44.916455 C143.887302,42.5665079 142.115026,40.7213228 139.79873,39.7061905 L127.384392,34.2239153 C125.957037,33.5677249 124.353016,33.2508466 122.63963,33.2508466 L122.63963,33.2508466 Z" id="Fill-1" sketch:type="MSShapeGroup"></path>
            <path d="M99.7262434,199.892381 C83.7982011,199.892381 74.0086243,196.412328 69.8050794,189.267143 C63.9722751,179.320529 71.125873,166.533228 76.3445503,157.18672 L77.0988889,155.840688 C78.2121693,153.838466 80.7387831,153.098148 82.749418,154.236667 C84.7600529,155.35836 85.483545,157.876561 84.3618519,159.887196 L83.5962963,161.264074 C79.6002646,168.417672 73.5515344,179.244815 76.9755026,185.077619 C79.485291,189.33164 87.3539683,191.583439 99.7262434,191.583439 C150.118307,191.583439 191.121799,150.571534 191.121799,100.187884 C191.121799,49.8014286 150.118307,8.78952381 99.7262434,8.78952381 C49.3313757,8.78952381 8.3278836,49.8014286 8.3278836,100.187884 C8.3278836,126.5 19.6766138,151.569841 39.4773016,168.908413 C41.204709,170.43672 41.372963,173.04746 39.8586772,174.78328 C38.3387831,176.505079 35.7140212,176.678942 33.9922222,175.156243 C12.4080423,156.213651 0.0273544974,128.886402 0.0273544974,100.187884 C0.0273544974,45.2165079 44.7548677,0.480582011 99.7318519,0.480582011 C154.71164,0.480582011 199.439153,45.2165079 199.439153,100.187884 C199.430741,155.167672 154.703228,199.892381 99.7262434,199.892381" id="Fill-2" sketch:type="MSShapeGroup"></path>
        </g>
    </g>
</svg>